<svg xmlns="http://www.w3.org/2000/svg" viewBox="0 0 512 512" fill="none">
  <title>Glaze UI Symbol</title>
  <defs>
    <linearGradient id="glaze" x1="96" y1="64" x2="416" y2="448" gradientUnits="userSpaceOnUse">
      <stop stop-color="#7AA7FF"/>
      <stop offset="1" stop-color="#5B5CEB"/>
    </linearGradient>
  </defs>
  <rect x="48" y="48" width="416" height="416" rx="128" fill="url(#glaze)"/>
  <path d="M338 166C313 139 278 124 238 124C159 124 104 181 104 256C104 331 159 388 238 388C284 388 321 372 348 344V268H238V318H291C278 335 259 344 238 344C190 344 155 308 155 256C155 204 190 168 238 168C263 168 285 177 301 194L338 166Z" fill="white" fill-opacity="0.95"/>
  <circle cx="360" cy="152" r="28" fill="white" fill-opacity="0.35"/>
</svg>